<svg xmlns="http://www.w3.org/2000/svg" viewBox="0 0 64 64" width="64" height="64">
  <g transform="translate(14 2) scale(2) rotate(-90 8 14)">
    <path d="M4.529 4.285L0.529 6.421A1 1 0 0 0 0 7.303v15.548a1 1 0 0 0 .491.861l7.555 4.469a1 1 0 0 0 1.062-.028l3.609-2.395a1 1 0 0 0-.017-1.677L6.464 20.123A1 1 0 0 1 6 19.278V5.167a1 1 0 0 0-1.471-.882Z" fill="#FFFFFF"/>
    <path d="m15.53 13.206-6-3.75A1 1 0 0 0 8 10.304v4.305a1 1 0 0 0 .509.871l1.842 1.039a1 1 0 0 1 .509.871v2.036a1 1 0 0 0 .432.823l3.14 2.168A1 1 0 0 0 16 21.594v-7.54a1 1 0 0 0-.47-.848Z" fill="#FFFFFF"/>
  </g>
</svg>
